<svg xmlns="http://www.w3.org/2000/svg" viewBox="0 0 400 300" width="406" height="306" class="illustration styles_illustrationTablet__1DWOa"><g id="_295_full_inbox_outline" data-name="#295_full_inbox_outline"><rect x="155.38" y="86.31" width="89.23" height="53.82" rx="4.03" fill="#fff"></rect><path d="M240.58,141.13H159.42a5,5,0,0,1-5-5V90.34a5,5,0,0,1,5-5h81.16a5,5,0,0,1,5,5V136.1A5,5,0,0,1,240.58,141.13ZM159.42,87.31a3,3,0,0,0-3,3V136.1a3,3,0,0,0,3,3h81.16a3,3,0,0,0,3-3V90.34a3,3,0,0,0-3-3Z" fill="#093f68"></path><path d="M243.25,140.11a1,1,0,0,1-.6-.2l-35-26a1,1,0,0,1,1.19-1.61l35,26a1,1,0,0,1-.59,1.81Z" fill="#093f68"></path><path d="M156.75,140.11a1,1,0,0,1-.59-1.81l35-26a1,1,0,0,1,1.19,1.61l-35,26A1,1,0,0,1,156.75,140.11Z" fill="#093f68"></path><path d="M287.57,149.09l-32.58-44a7.2,7.2,0,0,0-5.8-2.92H150.81a7.2,7.2,0,0,0-5.8,2.92l-32.58,44v53.62a11,11,0,0,0,11,11H276.59a11,11,0,0,0,11-11Z" fill="#093f68"></path><path d="M276.59,214.69H123.41a12,12,0,0,1-12-12V149.09a1,1,0,0,1,.19-.6l32.58-44a8.26,8.26,0,0,1,6.61-3.33h98.38a8.26,8.26,0,0,1,6.61,3.33l32.58,44a1,1,0,0,1,.19.6v53.62A12,12,0,0,1,276.59,214.69ZM113.43,149.42v53.29a10,10,0,0,0,10,10H276.59a10,10,0,0,0,10-10V149.42l-32.38-43.75a6.25,6.25,0,0,0-5-2.52H150.81a6.25,6.25,0,0,0-5,2.52Z" fill="#093f68"></path><rect x="149.35" y="93.07" width="101.31" height="61.1" rx="4.58" fill="#fff"></rect><path d="M246.08,155.18H153.92a5.59,5.59,0,0,1-5.57-5.58V97.65a5.59,5.59,0,0,1,5.57-5.58h92.16a5.59,5.59,0,0,1,5.57,5.58V149.6A5.59,5.59,0,0,1,246.08,155.18ZM153.92,94.07a3.58,3.58,0,0,0-3.57,3.58V149.6a3.58,3.58,0,0,0,3.57,3.58h92.16a3.58,3.58,0,0,0,3.57-3.58V97.65a3.58,3.58,0,0,0-3.57-3.58Z" fill="#093f68"></path><path d="M249.1,154a1,1,0,0,1-.6-.2l-39.68-29.49a1,1,0,1,1,1.19-1.6l39.69,29.49a1,1,0,0,1-.6,1.8Z" fill="#093f68"></path><path d="M150.9,154a1,1,0,0,1-.6-1.8L190,122.73a1,1,0,1,1,1.19,1.6L151.5,153.82A1,1,0,0,1,150.9,154Z" fill="#093f68"></path><rect x="142.95" y="101.53" width="114.1" height="68.82" rx="5.15" fill="#fff"></rect><path d="M251.9,171.35H148.1a6.16,6.16,0,0,1-6.15-6.16V106.68a6.16,6.16,0,0,1,6.15-6.15H251.9a6.16,6.16,0,0,1,6.15,6.15v58.51A6.16,6.16,0,0,1,251.9,171.35ZM148.1,102.53a4.15,4.15,0,0,0-4.15,4.15v58.51a4.16,4.16,0,0,0,4.15,4.16H251.9a4.16,4.16,0,0,0,4.15-4.16V106.68a4.15,4.15,0,0,0-4.15-4.15Z" fill="#093f68"></path><path d="M255.3,170a1,1,0,0,1-.6-.2L210,136.63a1,1,0,1,1,1.19-1.6l44.7,33.21a1,1,0,0,1-.6,1.8Z" fill="#093f68"></path><path d="M144.7,170a1,1,0,0,1-.6-1.8L188.8,135a1,1,0,1,1,1.19,1.6L145.3,169.84A1,1,0,0,1,144.7,170Z" fill="#093f68"></path><rect x="134.15" y="108.95" width="131.7" height="79.44" rx="5.95" fill="#fff"></rect><path d="M259.9,189.39H140.1a7,7,0,0,1-6.95-6.95V114.9a7,7,0,0,1,6.95-7H259.9a7,7,0,0,1,7,7v67.54A7,7,0,0,1,259.9,189.39ZM140.1,110a5,5,0,0,0-4.95,5v67.54a5,5,0,0,0,4.95,4.95H259.9a5,5,0,0,0,5-4.95V114.9a5,5,0,0,0-5-5Z" fill="#093f68"></path><path d="M200,158.58a1,1,0,0,1-.59-.19l-63.82-47.14a1,1,0,0,1-.21-1.4,1,1,0,0,1,1.39-.21L200,156.34l63.23-46.7a1,1,0,0,1,1.39.21,1,1,0,0,1-.21,1.4l-63.82,47.14A1,1,0,0,1,200,158.58Z" fill="#093f68"></path><path d="M263.83,187.88a.94.94,0,0,1-.59-.2l-51.6-38.33a1,1,0,0,1,1.2-1.61l51.59,38.34a1,1,0,0,1,.2,1.4A1,1,0,0,1,263.83,187.88Z" fill="#093f68"></path><path d="M136.17,187.88a1,1,0,0,1-.8-.4,1,1,0,0,1,.2-1.4l51.59-38.34a1,1,0,0,1,1.2,1.61l-51.6,38.33A.94.94,0,0,1,136.17,187.88Z" fill="#093f68"></path><path d="M287.57,149.09v53.62a11,11,0,0,1-11,11H123.41a11,11,0,0,1-11-11V149.09h47.41l4.46,22a8.75,8.75,0,0,0,8.58,7h54.84a8.78,8.78,0,0,0,8.62-7.15l4.12-21.91Z" fill="#f9ca24"></path><path d="M276.58,214.69H123.41a12,12,0,0,1-12-12V149.09a1,1,0,0,1,1-1h47.41a1,1,0,0,1,1,.8l4.46,22a7.77,7.77,0,0,0,7.6,6.23h54.84a7.77,7.77,0,0,0,7.63-6.34l4.12-21.91a1,1,0,0,1,1-.81h47.11a1,1,0,0,1,1,1v53.62A12,12,0,0,1,276.58,214.69Zm-163.15-64.6v52.62a10,10,0,0,0,10,10H276.58a10,10,0,0,0,10-10V150.09H241.29l-4,21.09a9.78,9.78,0,0,1-9.6,8H172.88a9.77,9.77,0,0,1-9.56-7.83L159,150.09Z" fill="#093f68"></path><path d="M150.9,191.86H131.26a1,1,0,0,1,0-2H150.9a1,1,0,0,1,0,2Z" fill="#093f68"></path><rect x="231.96" y="184.22" width="65.37" height="34.09" rx="3.89" fill="#f56132"></rect><path d="M293.44,219.32H235.85a4.9,4.9,0,0,1-4.89-4.89V188.11a4.9,4.9,0,0,1,4.89-4.89h57.59a4.9,4.9,0,0,1,4.89,4.89v26.32A4.9,4.9,0,0,1,293.44,219.32Zm-57.59-34.1a2.89,2.89,0,0,0-2.89,2.89v26.32a2.89,2.89,0,0,0,2.89,2.89h57.59a2.9,2.9,0,0,0,2.89-2.89V188.11a2.9,2.9,0,0,0-2.89-2.89Z" fill="#093f68"></path><path d="M250.12,193.62h9.5v2.88h-6.38v2.88h5.9v2.88h-5.9v5.52h-3.12Z" fill="#fff"></path><path d="M270.84,207.78H268v-1.32h0a2.85,2.85,0,0,1-.41.56,2.33,2.33,0,0,1-.61.5,3.23,3.23,0,0,1-.82.36,3.5,3.5,0,0,1-1,.14,4.27,4.27,0,0,1-1.85-.35,2.67,2.67,0,0,1-1.1-1,3.84,3.84,0,0,1-.52-1.46,12.87,12.87,0,0,1-.13-1.82v-5.36h3v4.76q0,.42,0,.87a2.72,2.72,0,0,0,.18.83,1.51,1.51,0,0,0,.46.62,1.45,1.45,0,0,0,.89.24,1.84,1.84,0,0,0,.94-.21,1.41,1.41,0,0,0,.55-.56,2.22,2.22,0,0,0,.25-.79,6.77,6.77,0,0,0,.06-.92v-4.84h3Z" fill="#fff"></path><path d="M273,192.66h3v15.12h-3Z" fill="#fff"></path><path d="M278.2,192.66h3v15.12h-3Z" fill="#fff"></path></g></svg>